<svg width="252" height="118" viewBox="0 0 252 118" fill="none" xmlns="http://www.w3.org/2000/svg">
<path d="M90.323 106.461H77.6876C76.2887 109.616 75.5892 111.804 75.5892 113.024C75.5892 113.917 75.9166 114.482 76.5714 114.721C77.256 114.959 78.2681 115.078 79.6075 115.078V116.864H67.374V115.078C68.0883 114.988 68.6985 114.869 69.2045 114.721C69.7403 114.572 70.2017 114.363 70.5886 114.095C71.0053 113.828 71.3625 113.485 71.6602 113.069C71.9578 112.622 72.2406 112.086 72.5085 111.461L84.2509 82.0383H87.5548L98.2257 108.113C98.8508 109.631 99.3717 110.821 99.7884 111.684C100.235 112.548 100.696 113.217 101.172 113.694C101.678 114.14 102.244 114.453 102.869 114.631C103.524 114.81 104.357 114.944 105.369 115.033V116.864H88.4924V115.033C89.9212 114.974 90.9481 114.825 91.5731 114.587C92.1982 114.348 92.5107 113.872 92.5107 113.158C92.5107 112.741 92.4066 112.205 92.1982 111.551C91.9899 110.896 91.7071 110.092 91.3499 109.14L90.323 106.461ZM78.7145 103.782H89.3408L84.2062 90.2535H84.0276L78.7145 103.782Z" fill="black"/>
<path d="M137.408 116.864H104.726V115.837L127.184 84.8064H115.888C113.685 84.8064 112.019 85.3571 110.888 86.4584C109.786 87.5597 109.027 89.2712 108.611 91.5929H106.869L107.584 82.4847H136.515V83.5116L114.281 114.363H127.05C128.657 114.363 129.967 114.229 130.979 113.962C132.021 113.694 132.854 113.217 133.479 112.533C134.134 111.848 134.64 110.94 134.997 109.809C135.355 108.678 135.667 107.235 135.935 105.478H137.989L137.408 116.864Z" fill="black"/>
<path d="M157.182 116.864H141.243V115.078C142.255 115.048 143.058 114.959 143.654 114.81C144.279 114.631 144.755 114.319 145.082 113.872C145.41 113.426 145.633 112.801 145.752 111.997C145.871 111.164 145.931 110.047 145.931 108.648V90.7C145.931 89.4498 145.871 88.4229 145.752 87.6192C145.663 86.7858 145.469 86.131 145.172 85.6547C144.874 85.1785 144.442 84.8511 143.877 84.6725C143.341 84.4641 142.612 84.3302 141.689 84.2707V82.4847H156.735V84.2707C155.813 84.3302 155.069 84.4641 154.503 84.6725C153.967 84.8511 153.551 85.1785 153.253 85.6547C152.955 86.131 152.747 86.7858 152.628 87.6192C152.538 88.4229 152.494 89.4498 152.494 90.7V108.648C152.494 110.047 152.538 111.164 152.628 111.997C152.747 112.801 152.97 113.426 153.298 113.872C153.655 114.319 154.131 114.631 154.726 114.81C155.351 114.959 156.17 115.048 157.182 115.078V116.864Z" fill="black"/>
<path d="M179.327 82.0383C182.006 82.0383 184.506 82.4996 186.828 83.4223C189.149 84.3451 191.159 85.6101 192.855 87.2174C194.582 88.8247 195.936 90.7148 196.918 92.8877C197.9 95.0606 198.392 97.412 198.392 99.9421C198.392 102.353 197.886 104.615 196.874 106.729C195.891 108.842 194.537 110.687 192.811 112.265C191.114 113.813 189.105 115.048 186.783 115.971C184.461 116.864 181.976 117.31 179.327 117.31C176.678 117.31 174.192 116.864 171.871 115.971C169.549 115.048 167.525 113.813 165.799 112.265C164.072 110.687 162.718 108.842 161.736 106.729C160.753 104.615 160.262 102.353 160.262 99.9421C160.262 97.412 160.753 95.0606 161.736 92.8877C162.718 90.7148 164.057 88.8247 165.754 87.2174C167.48 85.6101 169.504 84.3451 171.826 83.4223C174.148 82.4996 176.648 82.0383 179.327 82.0383ZM179.327 114.408C181.053 114.408 182.616 114.081 184.015 113.426C185.414 112.741 186.605 111.789 187.587 110.568C188.569 109.318 189.313 107.815 189.819 106.059C190.355 104.273 190.623 102.279 190.623 100.076C190.623 97.7543 190.355 95.6708 189.819 93.8253C189.313 91.9501 188.569 90.3577 187.587 89.048C186.605 87.7085 185.414 86.6965 184.015 86.0119C182.616 85.2976 181.053 84.9404 179.327 84.9404C177.571 84.9404 175.993 85.2976 174.594 86.0119C173.225 86.6965 172.049 87.7085 171.067 89.048C170.085 90.3577 169.326 91.9501 168.79 93.8253C168.284 95.6708 168.031 97.7543 168.031 100.076C168.031 102.279 168.284 104.273 168.79 106.059C169.326 107.815 170.085 109.318 171.067 110.568C172.049 111.789 173.225 112.741 174.594 113.426C175.993 114.081 177.571 114.408 179.327 114.408Z" fill="black"/>
<path d="M232.174 116.864H201.412V115.078C202.394 115.048 203.197 114.959 203.823 114.81C204.448 114.661 204.924 114.408 205.251 114.051C205.579 113.694 205.802 113.188 205.921 112.533C206.04 111.878 206.1 111.03 206.1 109.988V89.3605C206.1 88.3187 206.04 87.4853 205.921 86.8602C205.832 86.2054 205.638 85.6994 205.341 85.3422C205.043 84.9553 204.611 84.7023 204.046 84.5832C203.51 84.4344 202.796 84.3302 201.903 84.2707V82.4847H217.306V84.2707C216.294 84.3004 215.476 84.3897 214.851 84.5385C214.255 84.6874 213.794 84.9553 213.467 85.3422C213.139 85.7292 212.916 86.2649 212.797 86.9495C212.708 87.6341 212.663 88.542 212.663 89.6731V108.381C212.663 109.631 212.782 110.658 213.02 111.461C213.288 112.235 213.734 112.845 214.359 113.292C214.985 113.709 215.818 114.006 216.86 114.185C217.902 114.334 219.196 114.408 220.744 114.408C222.471 114.408 223.914 114.304 225.075 114.095C226.236 113.887 227.203 113.5 227.977 112.935C228.781 112.339 229.421 111.551 229.897 110.568C230.373 109.586 230.775 108.306 231.102 106.729H232.888L232.174 116.864Z" fill="black"/>
<path d="M251.099 116.864H235.16V115.078C236.172 115.048 236.976 114.959 237.571 114.81C238.196 114.631 238.672 114.319 239 113.872C239.327 113.426 239.551 112.801 239.67 111.997C239.789 111.164 239.848 110.047 239.848 108.648V90.7C239.848 89.4498 239.789 88.4229 239.67 87.6192C239.58 86.7858 239.387 86.131 239.089 85.6547C238.792 85.1785 238.36 84.8511 237.794 84.6725C237.259 84.4641 236.529 84.3302 235.607 84.2707V82.4847H250.653V84.2707C249.73 84.3302 248.986 84.4641 248.421 84.6725C247.885 84.8511 247.468 85.1785 247.17 85.6547C246.873 86.131 246.664 86.7858 246.545 87.6192C246.456 88.4229 246.411 89.4498 246.411 90.7V108.648C246.411 110.047 246.456 111.164 246.545 111.997C246.664 112.801 246.888 113.426 247.215 113.872C247.572 114.319 248.049 114.631 248.644 114.81C249.269 114.959 250.087 115.048 251.099 115.078V116.864Z" fill="black"/>
<path d="M45.0296 92.5608V87.5415C45.0296 81.8888 49.6278 77.2915 55.2796 77.2915C76.5888 77.2906 93.9253 59.955 93.9253 38.6458C93.9253 17.3365 76.5888 0 55.2796 0H3.41133C1.5271 0 0 1.5271 0 3.41133V113.029C0 114.913 1.5271 116.44 3.41133 116.44H21.1503C34.3176 116.44 45.0296 105.728 45.0296 92.5608ZM55.2796 6.82266C72.8275 6.82266 87.1027 21.0978 87.1027 38.6458C87.1027 56.1928 72.8266 70.4689 55.2796 70.4689C45.8655 70.4689 38.2069 78.1275 38.2069 87.5415V92.5608C38.2069 100.798 32.3375 107.69 24.5616 109.275V6.82266H55.2796Z" fill="black"/>
<path d="M44.802 0H48.4408V27.5181H44.802V0Z" fill="black"/>
<path d="M34.5679 28.8826C34.5679 26.873 36.197 25.2438 38.2066 25.2438H55.0359C57.0455 25.2438 58.6746 26.873 58.6746 28.8826V70.6959C58.6746 72.3284 57.5874 73.7611 56.0151 74.2004L45.3536 77.1794C44.0378 77.547 43.0388 78.6207 42.7669 79.9596L37.5413 105.686C37.3991 106.385 36.7838 106.888 36.0696 106.888C35.2402 106.888 34.5679 106.216 34.5679 105.387V28.8826Z" fill="black"/>
<path d="M51.1698 27.5181C51.1698 30.0301 49.1334 32.0665 46.6214 32.0665C44.1093 32.0665 42.0729 30.0301 42.0729 27.5181C42.0729 25.006 44.1093 22.9696 46.6214 22.9696C49.1334 22.9696 51.1698 25.006 51.1698 27.5181Z" fill="black"/>
<path d="M79.5977 12.0534H83.2364V27.5181H79.5977V12.0534Z" fill="black"/>
<path d="M67.7715 28.8826C67.7715 26.873 69.4007 25.2438 71.4103 25.2438H88.2395C90.2492 25.2438 91.8783 26.873 91.8783 28.8826V45.9203C91.8783 46.8115 91.5512 47.6717 90.9592 48.3378L70.514 71.3386C70.2162 71.6737 69.7893 71.8654 69.341 71.8654C68.4742 71.8654 67.7715 71.1627 67.7715 70.2959V28.8826Z" fill="black"/>
<path d="M85.9654 27.5181C85.9654 30.0301 83.929 32.0665 81.417 32.0665C78.9049 32.0665 76.8685 30.0301 76.8685 27.5181C76.8685 25.006 78.9049 22.9696 81.417 22.9696C83.929 22.9696 85.9654 25.006 85.9654 27.5181Z" fill="black"/>
</svg>
