<svg width="22" height="22" viewBox="0 0 22 22" fill="none" xmlns="http://www.w3.org/2000/svg">
<path d="M10.9685 8.38095H13.0519V5.2381H16.1769V3.14286H13.0519V0H10.9685V3.14286H7.84355V5.2381H10.9685V8.38095ZM6.80188 17.8095C5.65605 17.8095 4.72896 18.7524 4.72896 19.9048C4.72896 21.0571 5.65605 22 6.80188 22C7.94771 22 8.88521 21.0571 8.88521 19.9048C8.88521 18.7524 7.94771 17.8095 6.80188 17.8095ZM17.2185 17.8095C16.0727 17.8095 15.1456 18.7524 15.1456 19.9048C15.1456 21.0571 16.0727 22 17.2185 22C18.3644 22 19.3019 21.0571 19.3019 19.9048C19.3019 18.7524 18.3644 17.8095 17.2185 17.8095ZM6.97896 14.4048L7.01021 14.279L7.94771 12.5714H15.7081C16.4894 12.5714 17.1769 12.1419 17.531 11.4924L21.5519 4.14857L19.7394 3.14286H19.729L18.5831 5.2381L15.7081 10.4762H8.39563L8.26021 10.1933L5.92688 5.2381L4.9373 3.14286L3.95813 1.04762H0.55188V3.14286H2.63521L6.38521 11.0943L4.97896 13.661C4.8123 13.9543 4.71855 14.3 4.71855 14.6667C4.71855 15.819 5.65605 16.7619 6.80188 16.7619H19.3019V14.6667H7.23938C7.10396 14.6667 6.97896 14.5514 6.97896 14.4048Z" fill="black"/>
</svg>
