<svg width="14" height="14" viewBox="0 0 14 14" fill="none" xmlns="http://www.w3.org/2000/svg">
<path d="M3.13375 14.0002H0.23125V4.6533H3.13375V14.0002ZM1.68094 3.3783C0.752813 3.3783 0 2.60955 0 1.68143C6.64312e-09 1.23561 0.177098 0.80806 0.492335 0.492823C0.807572 0.177587 1.23513 0.000488281 1.68094 0.000488281C2.12675 0.000488281 2.5543 0.177587 2.86954 0.492823C3.18478 0.80806 3.36188 1.23561 3.36188 1.68143C3.36188 2.60955 2.60875 3.3783 1.68094 3.3783ZM13.9969 14.0002H11.1006V9.45018C11.1006 8.3658 11.0787 6.97518 9.59156 6.97518C8.0825 6.97518 7.85125 8.1533 7.85125 9.37205V14.0002H4.95188V4.6533H7.73562V5.9283H7.77625C8.16375 5.19393 9.11031 4.41893 10.5225 4.41893C13.46 4.41893 14 6.3533 14 8.8658V14.0002H13.9969Z" fill="black"/>
</svg>
