<svg width="21" height="22" viewBox="0 0 21 22" fill="none" xmlns="http://www.w3.org/2000/svg">
<path d="M10.4167 8.38095H12.5V5.2381H15.625V3.14286H12.5V0H10.4167V3.14286H7.29167V5.2381H10.4167V8.38095ZM6.25 17.8095C5.10417 17.8095 4.17708 18.7524 4.17708 19.9048C4.17708 21.0571 5.10417 22 6.25 22C7.39583 22 8.33333 21.0571 8.33333 19.9048C8.33333 18.7524 7.39583 17.8095 6.25 17.8095ZM16.6667 17.8095C15.5208 17.8095 14.5938 18.7524 14.5938 19.9048C14.5938 21.0571 15.5208 22 16.6667 22C17.8125 22 18.75 21.0571 18.75 19.9048C18.75 18.7524 17.8125 17.8095 16.6667 17.8095ZM6.42708 14.4048L6.45833 14.279L7.39583 12.5714H15.1562C15.9375 12.5714 16.625 12.1419 16.9792 11.4924L21 4.14857L19.1875 3.14286H19.1771L18.0312 5.2381L15.1562 10.4762H7.84375L7.70833 10.1933L5.375 5.2381L4.38542 3.14286L3.40625 1.04762H0V3.14286H2.08333L5.83333 11.0943L4.42708 13.661C4.26042 13.9543 4.16667 14.3 4.16667 14.6667C4.16667 15.819 5.10417 16.7619 6.25 16.7619H18.75V14.6667H6.6875C6.55208 14.6667 6.42708 14.5514 6.42708 14.4048Z" fill="black"/>
</svg>
