<svg width="88" height="44" viewBox="0 0 88 44" fill="none" xmlns="http://www.w3.org/2000/svg">
<path d="M30.5709 36.479H26.2943C25.8208 37.5469 25.5841 38.2874 25.5841 38.7004C25.5841 39.0026 25.6949 39.194 25.9165 39.2746C26.1483 39.3552 26.4908 39.3955 26.9441 39.3955V40H22.8035V39.3955C23.0453 39.3653 23.2519 39.325 23.4231 39.2746C23.6045 39.2243 23.7606 39.1538 23.8916 39.0631C24.0326 38.9724 24.1535 38.8566 24.2543 38.7155C24.355 38.5644 24.4507 38.3831 24.5414 38.1715L28.5157 28.2129H29.634L33.2457 37.0381C33.4572 37.5519 33.6335 37.9549 33.7746 38.2471C33.9257 38.5392 34.0818 38.7659 34.243 38.9271C34.4143 39.0782 34.6057 39.184 34.8173 39.2444C35.0389 39.3049 35.321 39.3502 35.6635 39.3804V40H29.9513V39.3804C30.4349 39.3603 30.7825 39.3099 30.994 39.2293C31.2056 39.1487 31.3114 38.9875 31.3114 38.7457C31.3114 38.6047 31.2761 38.4234 31.2056 38.2017C31.1351 37.9801 31.0394 37.7081 30.9185 37.3857L30.5709 36.479ZM26.6419 35.5723H30.2385L28.5006 30.9935H28.4402L26.6419 35.5723ZM46.5075 40H35.4458V39.6524L43.047 29.1499H39.2237C38.4782 29.1499 37.9141 29.3362 37.5312 29.709C37.1585 30.0817 36.9016 30.661 36.7605 31.4468H36.1712L36.413 28.3641H46.2053V28.7116L38.6797 39.1538H43.0016C43.5456 39.1538 43.9889 39.1084 44.3314 39.0177C44.6841 38.9271 44.9661 38.7659 45.1777 38.5342C45.3993 38.3025 45.5706 37.9952 45.6915 37.6124C45.8124 37.2295 45.9182 36.7409 46.0088 36.1465H46.704L46.5075 40ZM53.2001 40H47.8052V39.3955C48.1478 39.3855 48.4198 39.3552 48.6213 39.3049C48.8328 39.2444 48.994 39.1386 49.1048 38.9875C49.2156 38.8364 49.2912 38.6248 49.3315 38.3528C49.3718 38.0708 49.3919 37.693 49.3919 37.2195V31.1446C49.3919 30.7215 49.3718 30.3739 49.3315 30.1019C49.3013 29.8198 49.2358 29.5982 49.135 29.437C49.0343 29.2758 48.8882 29.165 48.6968 29.1045C48.5155 29.034 48.2686 28.9887 47.9563 28.9685V28.3641H53.049V28.9685C52.7366 28.9887 52.4848 29.034 52.2934 29.1045C52.112 29.165 51.971 29.2758 51.8702 29.437C51.7695 29.5982 51.699 29.8198 51.6587 30.1019C51.6285 30.3739 51.6133 30.7215 51.6133 31.1446V37.2195C51.6133 37.693 51.6285 38.0708 51.6587 38.3528C51.699 38.6248 51.7745 38.8364 51.8854 38.9875C52.0063 39.1386 52.1674 39.2444 52.3689 39.3049C52.5805 39.3552 52.8575 39.3855 53.2001 39.3955V40ZM60.6953 28.2129C61.602 28.2129 62.4483 28.3691 63.2341 28.6814C64.0199 28.9937 64.6999 29.4219 65.2741 29.9659C65.8584 30.5099 66.3168 31.1496 66.6493 31.8851C66.9817 32.6205 67.148 33.4164 67.148 34.2727C67.148 35.0887 66.9767 35.8544 66.6342 36.5697C66.3017 37.2849 65.8433 37.9096 65.259 38.4435C64.6848 38.9674 64.0047 39.3855 63.2189 39.6978C62.4331 40 61.5919 40.1511 60.6953 40.1511C59.7987 40.1511 58.9575 40 58.1717 39.6978C57.3859 39.3855 56.7008 38.9674 56.1165 38.4435C55.5322 37.9096 55.0738 37.2849 54.7413 36.5697C54.4089 35.8544 54.2427 35.0887 54.2427 34.2727C54.2427 33.4164 54.4089 32.6205 54.7413 31.8851C55.0738 31.1496 55.5271 30.5099 56.1014 29.9659C56.6857 29.4219 57.3708 28.9937 58.1566 28.6814C58.9424 28.3691 59.7886 28.2129 60.6953 28.2129ZM60.6953 39.1689C61.2796 39.1689 61.8085 39.058 62.282 38.8364C62.7555 38.6047 63.1585 38.2823 63.491 37.8693C63.8234 37.4461 64.0753 36.9374 64.2465 36.343C64.4279 35.7385 64.5185 35.0635 64.5185 34.318C64.5185 33.5322 64.4279 32.827 64.2465 32.2024C64.0753 31.5677 63.8234 31.0287 63.491 30.5855C63.1585 30.1321 62.7555 29.7896 62.282 29.5579C61.8085 29.3161 61.2796 29.1952 60.6953 29.1952C60.1009 29.1952 59.567 29.3161 59.0935 29.5579C58.6301 29.7896 58.2321 30.1321 57.8997 30.5855C57.5672 31.0287 57.3103 31.5677 57.129 32.2024C56.9577 32.827 56.8721 33.5322 56.8721 34.318C56.8721 35.0635 56.9577 35.7385 57.129 36.343C57.3103 36.9374 57.5672 37.4461 57.8997 37.8693C58.2321 38.2823 58.6301 38.6047 59.0935 38.8364C59.567 39.058 60.1009 39.1689 60.6953 39.1689ZM78.582 40H68.1701V39.3955C68.5026 39.3855 68.7746 39.3552 68.9861 39.3049C69.1977 39.2545 69.3589 39.1689 69.4697 39.048C69.5805 38.9271 69.6561 38.7558 69.6964 38.5342C69.7367 38.3125 69.7568 38.0254 69.7568 37.6728V30.6913C69.7568 30.3386 69.7367 30.0566 69.6964 29.845C69.6662 29.6234 69.6007 29.4521 69.4999 29.3312C69.3992 29.2002 69.2531 29.1146 69.0617 29.0743C68.8804 29.0239 68.6386 28.9887 68.3363 28.9685V28.3641H73.5499V28.9685C73.2073 28.9786 72.9303 29.0088 72.7187 29.0592C72.5172 29.1096 72.3611 29.2002 72.2503 29.3312C72.1394 29.4622 72.0639 29.6435 72.0236 29.8752C71.9934 30.1069 71.9782 30.4142 71.9782 30.797V37.1288C71.9782 37.5519 72.0185 37.8995 72.0991 38.1715C72.1898 38.4334 72.3409 38.64 72.5525 38.7911C72.764 38.9321 73.0461 39.0329 73.3987 39.0933C73.7513 39.1437 74.1896 39.1689 74.7134 39.1689C75.2978 39.1689 75.7864 39.1336 76.1793 39.0631C76.5722 38.9926 76.8996 38.8616 77.1615 38.6702C77.4335 38.4687 77.6501 38.2017 77.8113 37.8693C77.9725 37.5368 78.1085 37.1036 78.2193 36.5697H78.8238L78.582 40ZM84.9876 40H79.5927V39.3955C79.9353 39.3855 80.2073 39.3552 80.4088 39.3049C80.6203 39.2444 80.7815 39.1386 80.8923 38.9875C81.0031 38.8364 81.0787 38.6248 81.119 38.3528C81.1593 38.0708 81.1794 37.693 81.1794 37.2195V31.1446C81.1794 30.7215 81.1593 30.3739 81.119 30.1019C81.0888 29.8198 81.0233 29.5982 80.9225 29.437C80.8218 29.2758 80.6757 29.165 80.4843 29.1045C80.303 29.034 80.0561 28.9887 79.7438 28.9685V28.3641H84.8365V28.9685C84.5241 28.9887 84.2723 29.034 84.0809 29.1045C83.8995 29.165 83.7585 29.2758 83.6577 29.437C83.557 29.5982 83.4865 29.8198 83.4462 30.1019C83.416 30.3739 83.4008 30.7215 83.4008 31.1446V37.2195C83.4008 37.693 83.416 38.0708 83.4462 38.3528C83.4865 38.6248 83.562 38.8364 83.6729 38.9875C83.7938 39.1386 83.9549 39.2444 84.1564 39.3049C84.368 39.3552 84.645 39.3855 84.9876 39.3955V40Z" fill="black"/>
<path d="M15.2408 31.3283V29.6294C15.2408 27.7162 16.7971 26.1602 18.71 26.1602C25.9224 26.1599 31.7901 20.2925 31.7901 13.0801C31.7901 5.86774 25.9224 0 18.71 0L1.1546 0C0.516857 0 -7.6419e-06 0.516866 -7.6419e-06 1.1546L-7.6419e-06 38.2559C-7.6419e-06 38.8936 0.516857 39.4105 1.1546 39.4105H7.15854C11.6152 39.4105 15.2408 35.7849 15.2408 31.3283ZM18.71 2.30921C24.6493 2.30921 29.4809 7.14081 29.4809 13.0801C29.4809 19.0191 24.649 23.851 18.71 23.851C15.5237 23.851 12.9316 26.4431 12.9316 29.6294V31.3283C12.9316 34.1162 10.945 36.4488 8.31314 36.9852L8.31314 2.30921L18.71 2.30921Z" fill="black"/>
<rect x="15.1638" width="1.23158" height="9.31381" fill="black"/>
<path d="M11.7 9.77577C11.7 9.09559 12.2514 8.54419 12.9316 8.54419H18.6276C19.3078 8.54419 19.8592 9.09559 19.8592 9.77577V23.928C19.8592 24.4805 19.4912 24.9654 18.9591 25.1141L15.3506 26.1224C14.9052 26.2468 14.5671 26.6102 14.4751 27.0634L12.7064 35.7706C12.6583 36.0075 12.45 36.1777 12.2083 36.1777C11.9276 36.1777 11.7 35.9502 11.7 35.6695V9.77577Z" fill="black"/>
<circle cx="15.7796" cy="9.31389" r="1.53947" fill="black"/>
<path d="M26.9408 4.07959H28.1724V9.3138H26.9408V4.07959Z" fill="black"/>
<path d="M22.9381 9.77577C22.9381 9.09558 23.4895 8.54419 24.1697 8.54419H29.8657C30.5459 8.54419 31.0973 9.09559 31.0973 9.77577V15.5424C31.0973 15.844 30.9866 16.1352 30.7862 16.3606L23.8663 24.1455C23.7655 24.2589 23.621 24.3238 23.4693 24.3238C23.1759 24.3238 22.9381 24.086 22.9381 23.7926V9.77577Z" fill="black"/>
<circle cx="27.5566" cy="9.31389" r="1.53947" fill="black"/>
</svg>
