<svg width="14" height="14" viewBox="0 0 14 14" fill="none" xmlns="http://www.w3.org/2000/svg">
<path d="M12.5609 3.74113C12.5698 3.88325 12.5698 4.02541 12.5698 4.16753C12.5698 8.50253 9.68275 13.4975 4.40609 13.4975C2.78045 13.4975 1.27031 12.9594 0 12.0254C0.230973 12.0558 0.453031 12.066 0.692891 12.066C2.03424 12.066 3.26903 11.5483 4.25507 10.665C2.99365 10.6345 1.93654 9.69038 1.57232 8.39088C1.75 8.42131 1.92765 8.44163 2.11422 8.44163C2.37182 8.44163 2.62946 8.401 2.86929 8.32997C1.55457 8.02538 0.568504 6.7056 0.568504 5.11169V5.07109C0.950469 5.31475 1.39467 5.46703 1.86545 5.48731C1.0926 4.89847 0.586277 3.89341 0.586277 2.75634C0.586277 2.14722 0.728383 1.58884 0.977129 1.10153C2.38957 3.09138 4.51268 4.39084 6.89336 4.533C6.84895 4.28934 6.82229 4.03556 6.82229 3.78175C6.82229 1.97463 8.10149 0.502563 9.69158 0.502563C10.5177 0.502563 11.2639 0.898501 11.788 1.53809C12.4365 1.39597 13.0583 1.12184 13.6091 0.74622C13.3959 1.50766 12.9428 2.14725 12.3477 2.55331C12.9251 2.48228 13.4847 2.2995 13.9999 2.04572C13.6091 2.69544 13.1205 3.27409 12.5609 3.74113Z" fill="black"/>
</svg>
